<?xml version="1.0" standalone="no"?>
<!DOCTYPE svg PUBLIC "-//W3C//DTD SVG 20010904//EN"
 "http://www.w3.org/TR/2001/REC-SVG-20010904/DTD/svg10.dtd">
<svg version="1.0" xmlns="http://www.w3.org/2000/svg"
 width="921.000000pt" height="827.000000pt" viewBox="0 0 921.000000 827.000000"
 preserveAspectRatio="xMidYMid meet">

<g transform="translate(0.000000,827.000000) scale(0.100000,-0.100000)"
fill="#000000" stroke="none">
<path d="M4615 7285 c-36 -46 -66 -176 -104 -452 -6 -38 -15 -104 -21 -148 -6
-44 -14 -142 -17 -217 l-6 -137 -54 -68 c-30 -37 -62 -69 -71 -70 -89 -10
-119 -23 -124 -55 -3 -21 -45 -42 -100 -50 -13 -2 -45 -15 -71 -30 -26 -16
-51 -28 -56 -28 -4 0 -16 -9 -26 -20 -10 -11 -21 -17 -26 -14 -9 5 -84 -68
-109 -106 -22 -33 -91 -114 -101 -118 -5 -2 -9 -10 -9 -17 0 -8 -13 -37 -30
-65 -16 -28 -29 -54 -28 -58 1 -6 -10 -104 -17 -142 -2 -8 -12 -44 -24 -79
-12 -35 -21 -70 -21 -78 0 -12 -19 -52 -30 -63 -3 -3 -6 -12 -6 -21 -1 -9 -4
-47 -8 -85 -4 -38 -10 -89 -12 -114 -3 -25 -9 -49 -13 -53 -4 -4 -5 -26 -1
-48 4 -23 3 -42 -2 -46 -6 -3 -8 -27 -6 -54 3 -26 2 -52 -3 -56 -4 -4 -12 -26
-18 -47 -8 -32 -7 -49 9 -95 11 -30 20 -79 20 -108 0 -52 6 -69 54 -161 14
-27 22 -58 21 -85 -2 -38 -8 -49 -53 -92 -29 -28 -52 -57 -52 -66 0 -9 -7 -22
-15 -29 -8 -7 -13 -15 -11 -19 3 -4 -9 -16 -25 -26 -16 -11 -29 -28 -29 -37 0
-9 -15 -26 -34 -37 -18 -12 -45 -39 -60 -60 -15 -22 -34 -42 -41 -45 -8 -3
-17 -21 -21 -41 -3 -20 -12 -39 -19 -42 -8 -2 -21 -19 -30 -36 -9 -18 -29 -54
-45 -82 -15 -27 -38 -69 -50 -93 -11 -24 -28 -46 -36 -49 -8 -3 -13 -10 -12
-17 1 -6 -7 -27 -17 -46 -11 -19 -19 -37 -20 -40 0 -3 -13 -18 -28 -34 -15
-16 -25 -35 -23 -43 3 -7 -1 -16 -9 -20 -15 -9 -75 -88 -75 -100 0 -9 -65 -78
-104 -110 -15 -13 -24 -28 -21 -34 4 -6 -2 -13 -14 -16 -17 -4 -19 -8 -10 -19
9 -11 4 -17 -22 -31 -18 -10 -42 -28 -54 -40 -12 -12 -41 -32 -66 -43 -24 -11
-55 -27 -69 -35 -14 -8 -35 -15 -47 -15 -12 0 -38 -9 -57 -19 -18 -11 -49 -24
-67 -29 -81 -24 -170 -60 -187 -75 -10 -9 -26 -17 -35 -17 -9 0 -18 -4 -21 -8
-3 -5 -31 -14 -63 -21 -32 -7 -68 -17 -81 -22 -13 -5 -36 -9 -51 -9 -16 0 -44
-12 -65 -29 -19 -16 -59 -36 -88 -46 -51 -16 -77 -33 -175 -111 -28 -23 -77
-52 -109 -63 -52 -20 -72 -22 -216 -18 -162 5 -232 -4 -281 -35 -31 -20 -123
-46 -182 -52 -27 -2 -72 -10 -100 -16 -27 -7 -81 -14 -120 -15 -83 -3 -94 -5
-128 -28 -46 -30 -68 -59 -56 -73 13 -16 2 -37 -16 -30 -7 2 -16 -2 -19 -9 -3
-8 -12 -12 -20 -9 -11 4 -25 -13 -50 -63 -105 -204 -109 -219 -80 -314 9 -30
18 -59 20 -66 2 -7 22 -22 45 -35 23 -13 53 -29 68 -37 14 -8 69 -25 121 -37
52 -12 115 -28 140 -34 88 -22 267 -42 415 -47 127 -3 160 -1 218 15 54 15 77
18 110 10 23 -5 103 -10 177 -11 131 -2 195 5 470 51 89 14 169 17 535 16 668
-2 838 -11 1065 -55 218 -42 238 -47 299 -77 80 -40 81 -54 7 -148 -74 -94
-87 -126 -89 -231 -3 -107 19 -178 67 -219 48 -42 204 -108 286 -122 36 -6
124 -21 195 -34 103 -18 166 -23 300 -22 154 1 179 3 270 29 55 15 127 34 160
42 33 8 74 22 90 32 35 20 90 29 255 41 195 15 313 28 360 40 44 11 363 30
620 36 107 2 206 7 220 11 14 3 34 7 45 9 11 2 51 12 89 23 71 21 101 40 111
72 4 11 12 19 20 19 8 0 16 9 20 19 3 11 18 27 33 37 61 40 102 80 102 101 0
12 5 25 10 28 6 4 8 15 5 25 -7 23 46 79 101 105 21 10 81 24 134 32 52 7 120
18 150 25 30 6 87 14 125 17 85 9 95 14 170 90 33 34 68 61 78 61 22 0 77 58
77 81 0 10 14 29 30 42 17 14 30 32 30 39 0 7 16 30 34 52 31 34 156 270 156
294 0 17 27 63 48 82 11 11 30 50 42 87 11 37 26 76 31 87 17 29 28 119 18
138 -6 12 -5 37 5 75 8 31 13 60 10 64 -2 5 -7 32 -10 61 -3 29 -7 60 -8 68
-4 28 -28 105 -36 115 -4 6 -10 28 -13 50 -13 108 -73 345 -86 345 -5 0 -11
19 -15 42 -4 24 -16 63 -28 88 -11 25 -27 61 -35 80 -17 40 -16 38 -83 165
-45 87 -75 136 -120 199 -8 11 -46 52 -83 91 -37 38 -67 73 -67 77 0 4 -5 8
-10 8 -13 0 -60 49 -60 61 0 5 -7 9 -15 9 -8 0 -15 4 -15 8 0 5 -11 14 -25 20
-14 6 -25 18 -25 27 0 8 -7 15 -15 15 -9 0 -18 7 -21 15 -4 8 -14 15 -23 15
-9 1 -34 9 -56 20 -22 11 -43 19 -47 20 -16 0 -186 81 -298 140 -30 17 -63 30
-73 30 -35 0 -54 19 -67 65 -7 25 -17 48 -21 51 -8 4 -6 82 7 219 2 28 4 59 4
70 1 10 6 25 12 32 6 7 8 25 5 40 -3 15 1 36 9 48 9 14 16 60 19 126 8 191 17
324 22 332 3 5 4 54 4 110 -1 88 2 107 23 151 38 80 52 130 81 296 28 162 29
257 3 360 -29 120 -155 160 -345 110 -73 -19 -299 -117 -385 -166 -18 -11 -61
-32 -96 -48 -65 -28 -80 -29 -162 -4 -50 15 -52 16 -85 37 -16 11 -47 20 -67
20 -20 1 -39 5 -43 10 -3 5 -19 12 -35 16 -17 4 -30 10 -30 15 0 4 -15 14 -32
21 -18 7 -51 26 -72 41 -21 15 -46 28 -56 28 -9 0 -20 4 -25 9 -6 4 -46 14
-90 21 -44 6 -95 18 -114 26 -18 8 -41 14 -50 14 -9 0 -34 9 -56 20 -22 11
-46 20 -55 20 -9 0 -26 7 -38 16 -12 8 -22 12 -22 8 0 -4 -16 10 -35 30 -19
20 -64 61 -99 90 -109 89 -152 153 -200 299 -72 213 -140 322 -224 358 -67 29
-96 25 -127 -16z"/>
</g>
</svg>
